<svg width="40" height="40" viewBox="0 0 40 40" fill="none" xmlns="http://www.w3.org/2000/svg">
<rect width="40" height="40" fill="#E0E0E0"/>
<g clip-path="url(#clip0_80_303)">
<path d="M25.5009 9.91699C24.3749 9.93451 23.2734 10.2488 22.3077 10.8283C21.342 11.4077 20.5463 12.2317 20.0009 13.217C19.4556 12.2317 18.6599 11.4077 17.6942 10.8283C16.7285 10.2488 15.627 9.93451 14.5009 9.91699C12.7059 9.99498 11.0146 10.7802 9.79672 12.1012C8.57879 13.4222 7.93318 15.1715 8.00093 16.967C8.00093 21.514 12.7869 26.48 16.8009 29.847C17.6972 30.6001 18.8303 31.013 20.0009 31.013C21.1716 31.013 22.3047 30.6001 23.2009 29.847C27.2149 26.48 32.0009 21.514 32.0009 16.967C32.0687 15.1715 31.4231 13.4222 30.2052 12.1012C28.9872 10.7802 27.296 9.99498 25.5009 9.91699ZM21.9159 28.317C21.3799 28.7684 20.7017 29.0159 20.0009 29.0159C19.3002 29.0159 18.622 28.7684 18.0859 28.317C12.9479 24.006 10.0009 19.87 10.0009 16.967C9.93258 15.7017 10.3673 14.4607 11.2103 13.5147C12.0533 12.5687 13.2362 11.9943 14.5009 11.917C15.7657 11.9943 16.9486 12.5687 17.7916 13.5147C18.6346 14.4607 19.0693 15.7017 19.0009 16.967C19.0009 17.2322 19.1063 17.4866 19.2938 17.6741C19.4814 17.8616 19.7357 17.967 20.0009 17.967C20.2662 17.967 20.5205 17.8616 20.708 17.6741C20.8956 17.4866 21.0009 17.2322 21.0009 16.967C20.9326 15.7017 21.3673 14.4607 22.2103 13.5147C23.0533 12.5687 24.2362 11.9943 25.5009 11.917C26.7657 11.9943 27.9486 12.5687 28.7916 13.5147C29.6346 14.4607 30.0693 15.7017 30.0009 16.967C30.0009 19.87 27.0539 24.006 21.9159 28.313V28.317Z" fill="#1A1A1A"/>
</g>
<defs>
<clipPath id="clip0_80_303">
<rect width="24" height="24" fill="white" transform="translate(8 8)"/>
</clipPath>
</defs>
</svg>
